HIERARCHY
ROOT Hips
{
     OFFSET 23.18260 95.62190 -28.07970
     CHANNELS 6 Xposition Yposition Zposition Zrotation Xrotation Yrotation
     JOINT Spine
     {
          OFFSET 0.00000 11.89050 0.00000
          CHANNELS 3 Zrotation Xrotation Yrotation
          JOINT Spine1
          {
               OFFSET 0.00000 25.65740 0.12766
               CHANNELS 3 Zrotation Xrotation Yrotation
               JOINT HEad
               {
                    OFFSET 0.00000 8.73416 0.01134
                    CHANNELS 3 Zrotation Xrotation Yrotation
                    End Site
                    {
                         OFFSET -0.29000 12.77420 2.51395
                    }
               }
               JOINT LeftShoulder1
               {
                    OFFSET 8.99000 -0.36225 -0.22000
                    CHANNELS 3 Zrotation Xrotation Yrotation
                    JOINT LeftArm
                    {
                         OFFSET 10.28270 -0.00338 0.32212
                         CHANNELS 3 Zrotation Xrotation Yrotation
                         JOINT LeftForeArm
                         {
                              OFFSET 32.76690 0.09914 -1.42434
                              CHANNELS 3 Zrotation Xrotation Yrotation
                              JOINT LeftHand
                              {
                                   OFFSET 27.56430 0.08536 1.02216
                                   CHANNELS 3 Zrotation Xrotation Yrotation
                                   End Site
                                   {
                                        OFFSET 16.74430 -0.60000 1.50291
                                   }
                              }
                         }
                    }
               }
               JOINT RightShoulder
               {
                    OFFSET -8.99000 -0.36225 -0.22000
                    CHANNELS 3 Zrotation Xrotation Yrotation
                    JOINT RightArm
                    {
                         OFFSET -10.28270 -0.00338 0.32212
                         CHANNELS 3 Zrotation Xrotation Yrotation
                         JOINT RightForeArm
                         {
                              OFFSET -32.89710 0.09914 -1.42434
                              CHANNELS 3 Zrotation Xrotation Yrotation
                              JOINT RightHand
                              {
                                   OFFSET -27.49210 0.08536 1.02216
                                   CHANNELS 3 Zrotation Xrotation Yrotation
                                   End Site
                                   {
                                        OFFSET -16.63120 -0.60000 1.50291
                                   }
                              }
                         }
                    }
               }
          }
     }
     JOINT LeftUpLeg
     {
          OFFSET 8.94580 -8.66707 0.10165
          CHANNELS 3 Zrotation Xrotation Yrotation
          JOINT LeftLeg
          {
               OFFSET 0.00000 -44.42270 1.37270
               CHANNELS 3 Zrotation Xrotation Yrotation
               JOINT LeftFoot
               {
                    OFFSET -0.25355 -42.09240 -1.46059
                    CHANNELS 3 Zrotation Xrotation Yrotation
                    JOINT LeftToes
                    {
                         OFFSET -0.04000 -4.41509 8.49910
                         CHANNELS 3 Zrotation Xrotation Yrotation
                         End Site
                         {
                              OFFSET 0.08000 -0.04745 9.77979
                         }
                    }
               }
          }
     }
     JOINT RightUpLeg
     {
          OFFSET -8.94580 -8.66707 0.10165
          CHANNELS 3 Zrotation Xrotation Yrotation
          JOINT RightLeg
          {
               OFFSET 0.00000 -44.42270 1.37270
               CHANNELS 3 Zrotation Xrotation Yrotation
               JOINT RightFoot
               {
                    OFFSET 0.25355 -42.09240 -1.46059
                    CHANNELS 3 Zrotation Xrotation Yrotation
                    JOINT RightToes
                    {
                         OFFSET 0.04000 -4.41509 8.49910
                         CHANNELS 3 Zrotation Xrotation Yrotation
                         End Site
                         {
                              OFFSET -0.08000 -0.13745 9.77979
                         }
                    }
               }
          }
     }
}
MOTION
Frames: 10
Frame Time: 0.01667
23.18260 95.62190 -28.07970 -8.87375 -6.82880 -33.89100 4.33307 5.75668 0.28464 2.75904 12.01890 1.34221 -12.77090 18.92940 12.57890 0.00000 0.00000 0.00000 -93.71860 -42.87970 -55.70800 12.52650 33.47110 -96.66120 30.28670 10.56920 6.90438 11.70940 1.00871 4.12779 79.05670 1.93222 78.96530 -1.63906 25.78300 83.25180 -0.00230 10.01470 13.79360 24.51180 -12.91180 3.23714 -11.14150 27.46580 20.47150 -4.61031 2.48620 0.37753 -9.47605 -11.06760 -4.72633 -10.57670 1.92426 -0.62161 0.22241 37.29030 4.15185 13.63120 -23.65370 1.69693 2.88856 13.26400 -19.91300 
23.12700 95.71640 -28.02900 -8.81175 -6.78064 -34.36130 4.14296 5.77324 0.25328 2.51992 12.02970 1.25803 -12.32970 19.70790 13.14030 0.00000 0.00000 0.00000 -94.82430 -43.53740 -56.98280 10.99530 33.71980 -96.15620 29.73620 10.29070 5.86152 11.72080 1.04206 4.35032 80.63960 2.89433 78.23180 -0.44822 25.64740 82.90830 -0.56392 9.92721 14.25150 24.97640 -13.16910 2.91307 -12.11840 27.96140 21.63680 -4.84668 3.09250 0.42030 -9.18133 -11.11490 -3.90819 -10.64930 1.94991 -0.44834 0.08610 36.87350 4.64735 13.39940 -23.29210 1.62024 2.64203 12.65890 -19.87290 
23.11990 95.83690 -27.92440 -8.74131 -6.69285 -34.96170 3.87598 5.79237 0.25332 2.20390 12.03510 1.22323 -11.62640 20.57890 13.82700 0.00000 0.00000 0.00000 -96.64150 -44.18400 -59.13520 8.87071 34.15600 -95.61190 29.16630 9.91869 4.40290 11.77820 1.08480 4.61835 82.41170 3.83518 77.24550 0.97157 25.52080 82.50730 -1.23714 9.81675 14.70150 25.41240 -13.38550 2.88174 -12.87600 28.48290 22.50390 -5.06987 3.53763 0.45813 -9.07117 -11.49150 -2.96110 -10.78380 1.92601 -0.30676 -0.11468 36.38030 5.37835 13.32560 -22.75740 1.54694 2.32131 11.86900 -19.91350 
23.16680 95.98630 -27.76380 -8.68576 -6.55717 -35.69360 3.52735 5.81580 0.28113 1.79778 12.03940 1.23340 -10.70880 21.57390 14.64350 0.00000 0.00000 0.00000 -99.50490 -44.74110 -62.56380 6.00866 34.99270 -95.14420 28.70710 9.45065 2.49880 12.01150 1.15076 4.96931 84.22560 4.66937 76.01220 2.47775 25.42540 82.07770 -2.00012 9.68541 15.17640 25.80410 -13.48680 3.09422 -13.34390 28.92360 23.08280 -5.17371 3.68647 0.47406 -9.27209 -12.20850 -2.20863 -10.96120 1.84700 -0.18638 -0.38076 35.82580 6.30726 13.57940 -22.09960 1.50335 2.01678 11.11740 -19.92470 
23.27280 96.16040 -27.55320 -8.65951 -6.36515 -36.53470 3.09538 5.84651 0.31935 1.29898 12.05030 1.25576 -9.68742 22.71820 15.62090 0.00000 0.00000 0.00000 -103.66600 -44.96790 -67.62370 2.20440 36.42260 -94.70540 28.39090 8.85438 0.02608 12.47300 1.24613 5.40736 85.96780 5.38521 74.55450 3.89836 25.37210 81.67160 -2.81584 9.53692 15.73210 26.15040 -13.42110 3.33649 -13.57770 29.12310 23.46230 -5.14908 3.50456 0.46459 -9.79799 -13.07220 -2.02631 -11.15470 1.69089 -0.08961 -0.70473 35.25030 7.36983 14.15010 -21.35130 1.48544 1.80391 10.58690 -19.84490 
23.44290 96.34510 -27.29930 -8.67399 -6.11304 -37.46860 2.59411 5.89095 0.34166 0.71608 12.08470 1.24282 -8.74707 24.05940 16.83880 0.00000 0.00000 0.00000 -109.12100 -44.44360 -74.41220 -2.80957 38.53880 -94.01700 27.92920 8.08611 -3.25058 13.08850 1.36551 5.90659 87.61960 6.04156 72.90050 5.15669 25.34860 81.33380 -3.60657 9.38196 16.39640 26.46220 -13.14720 3.39555 -13.68300 28.93450 23.69500 -5.11896 3.07721 0.44527 -10.50520 -13.77230 -2.55168 -11.33980 1.42186 -0.04783 -1.08512 34.72460 8.54873 14.86760 -20.52080 1.46653 1.71639 10.36220 -19.70630 
23.68540 96.51770 -27.00450 -8.73905 -5.79871 -38.51660 2.05727 5.95439 0.32048 0.07422 12.15830 1.14715 -8.18206 25.67020 18.44020 0.00000 0.00000 0.00000 -115.42300 -42.69940 -82.54920 -9.25668 41.27930 -92.66980 26.58310 7.21455 -7.45878 13.70090 1.50026 6.46605 89.20770 6.70900 71.11000 6.29453 25.31860 81.07200 -4.29212 9.23529 17.11760 26.75910 -12.62560 3.21044 -13.73170 28.28470 23.81240 -5.21894 2.61646 0.43657 -11.25090 -14.14090 -3.68346 -11.50680 0.97555 -0.08925 -1.52488 34.35940 9.86814 15.60730 -19.63430 1.43181 1.78897 10.53590 -19.56070 
24.00740 96.65610 -26.66830 -8.86111 -5.40935 -39.73500 1.52333 6.03436 0.23628 -0.57282 12.26990 0.93319 -8.32053 27.51660 20.60530 0.00000 0.00000 0.00000 -121.60900 -39.43130 -91.18040 -16.91790 44.31640 -90.50080 23.44530 6.58523 -12.22270 14.12470 1.64256 7.12124 90.73490 7.44514 69.28620 7.40519 25.23180 80.85630 -4.84521 9.10769 17.77330 27.06450 -11.83930 2.90015 -13.73800 27.22250 23.85080 -5.45092 2.30329 0.44447 -11.83210 -14.12750 -5.03153 -11.65590 0.26278 -0.20762 -2.01250 34.27010 11.31910 16.44380 -18.72470 1.39192 2.07151 11.23680 -19.40960 
24.40950 96.74990 -26.28620 -9.03517 -4.92117 -41.17780 1.01887 6.11958 0.07988 -1.15639 12.39820 0.57982 -9.36671 29.34970 23.48290 0.00000 0.00000 0.00000 -123.25900 -34.60100 -97.89810 -23.16690 44.53060 -89.64020 18.18120 6.73891 -16.24760 14.21730 1.78343 7.90527 92.15060 8.30380 67.55340 8.54350 25.04710 80.65390 -5.28041 9.00412 18.25260 27.38660 -10.82410 2.67919 -13.68500 25.93130 23.85250 -5.66963 2.09276 0.45442 -11.94310 -13.67560 -6.03131 -11.79100 -0.79877 -0.37634 -2.50013 34.52470 12.80920 17.52210 -17.77320 1.35452 2.59388 12.54180 -19.25870 
24.88550 96.80030 -25.85150 -9.24157 -4.32154 -42.86710 0.54180 6.19348 -0.14760 -1.63624 12.50990 0.08299 -11.30360 30.82750 27.11210 0.00000 0.00000 0.00000 -123.54600 -29.53510 -104.64200 -26.95400 44.57150 -90.76490 11.68180 7.66635 -18.89200 13.98850 1.91749 8.82016 93.30940 9.31674 66.03320 9.65583 24.75030 80.45790 -5.62877 8.92240 18.54640 27.70710 -9.65630 2.74615 -13.56880 24.65170 23.91200 -5.66502 1.78691 0.44083 -11.51780 -12.87000 -6.42489 -11.92760 -2.25119 -0.57295 -2.89605 35.13470 14.16970 18.82560 -16.68850 1.29576 3.34237 14.41040 -19.18970 
